Metropolis-Bold Italic.ufo
<glyph name="percent" format="1">
  <advance width="865"/>
  <unicode hex="0025"/>
  <outline>
    <contour>
      <point x="206" y="0" type="line"/>
      <point x="832" y="687" type="line"/>
      <point x="695" y="687" type="line"/>
      <point x="69" y="0" type="line"/>
    </contour>
    <contour>
      <point x="726" y="-11"/>
      <point x="816" y="84"/>
      <point x="816" y="195" type="curve" smooth="yes"/>
      <point x="816" y="281"/>
      <point x="759" y="346"/>
      <point x="660" y="346" type="curve" smooth="yes"/>
      <point x="544" y="346"/>
      <point x="453" y="251"/>
      <point x="453" y="139" type="curve" smooth="yes"/>
      <point x="453" y="54"/>
      <point x="511" y="-11"/>
      <point x="611" y="-11" type="curve" smooth="yes"/>
    </contour>
    <contour>
      <point x="586" y="97"/>
      <point x="572" y="109"/>
      <point x="572" y="134" type="curve" smooth="yes"/>
      <point x="572" y="182"/>
      <point x="609" y="238"/>
      <point x="662" y="238" type="curve" smooth="yes"/>
      <point x="683" y="238"/>
      <point x="698" y="226"/>
      <point x="698" y="200" type="curve" smooth="yes"/>
      <point x="698" y="154"/>
      <point x="660" y="97"/>
      <point x="608" y="97" type="curve" smooth="yes"/>
    </contour>
    <contour>
      <point x="356" y="338"/>
      <point x="446" y="431"/>
      <point x="446" y="544" type="curve" smooth="yes"/>
      <point x="446" y="629"/>
      <point x="389" y="694"/>
      <point x="288" y="694" type="curve" smooth="yes"/>
      <point x="172" y="694"/>
      <point x="83" y="600"/>
      <point x="83" y="487" type="curve" smooth="yes"/>
      <point x="83" y="401"/>
      <point x="142" y="338"/>
      <point x="239" y="338" type="curve" smooth="yes"/>
    </contour>
    <contour>
      <point x="216" y="445"/>
      <point x="202" y="457"/>
      <point x="202" y="482" type="curve" smooth="yes"/>
      <point x="202" y="529"/>
      <point x="239" y="586"/>
      <point x="291" y="586" type="curve" smooth="yes"/>
      <point x="313" y="586"/>
      <point x="327" y="574"/>
      <point x="327" y="549" type="curve" smooth="yes"/>
      <point x="327" y="502"/>
      <point x="289" y="445"/>
      <point x="237" y="445" type="curve" smooth="yes"/>
    </contour>
  </outline>
</glyph>
<glyph name="asterisk" format="1">
  <advance width="389"/>
  <unicode hex="002A"/>
  <outline>
    <contour>
      <point x="235" y="325"/>
      <point x="260" y="345"/>
      <point x="265" y="368" type="curve" smooth="yes"/>
      <point x="272" y="400"/>
      <point x="260" y="444"/>
      <point x="261" y="476" type="curve"/>
      <point x="282" y="456"/>
      <point x="302" y="416"/>
      <point x="326" y="400" type="curve" smooth="yes"/>
      <point x="343" y="388"/>
      <point x="373" y="396"/>
      <point x="391" y="419" type="curve" smooth="yes"/>
      <point x="408" y="442"/>
      <point x="407" y="470"/>
      <point x="390" y="481" type="curve" smooth="yes"/>
      <point x="366" y="497"/>
      <point x="319" y="502"/>
      <point x="290" y="514" type="curve"/>
      <point x="323" y="526"/>
      <point x="373" y="530"/>
      <point x="403" y="546" type="curve" smooth="yes"/>
      <point x="425" y="557"/>
      <point x="438" y="585"/>
      <point x="430" y="608" type="curve" smooth="yes"/>
      <point x="422" y="631"/>
      <point x="395" y="639"/>
      <point x="373" y="627" type="curve" smooth="yes"/>
      <point x="343" y="611"/>
      <point x="306" y="572"/>
      <point x="276" y="552" type="curve"/>
      <point x="288" y="584"/>
      <point x="318" y="628"/>
      <point x="325" y="660" type="curve" smooth="yes"/>
      <point x="330" y="683"/>
      <point x="313" y="703"/>
      <point x="287" y="703" type="curve" smooth="yes"/>
      <point x="261" y="703"/>
      <point x="236" y="683"/>
      <point x="231" y="660" type="curve" smooth="yes"/>
      <point x="224" y="628"/>
      <point x="235" y="584"/>
      <point x="233" y="552" type="curve"/>
      <point x="212" y="572"/>
      <point x="193" y="612"/>
      <point x="169" y="628" type="curve" smooth="yes"/>
      <point x="152" y="640"/>
      <point x="122" y="632"/>
      <point x="104" y="609" type="curve" smooth="yes"/>
      <point x="86" y="586"/>
      <point x="88" y="558"/>
      <point x="105" y="547" type="curve" smooth="yes"/>
      <point x="129" y="531"/>
      <point x="175" y="526"/>
      <point x="203" y="514" type="curve"/>
      <point x="171" y="502"/>
      <point x="122" y="498"/>
      <point x="92" y="482" type="curve" smooth="yes"/>
      <point x="69" y="471"/>
      <point x="57" y="443"/>
      <point x="65" y="420" type="curve" smooth="yes"/>
      <point x="73" y="397"/>
      <point x="99" y="389"/>
      <point x="122" y="401" type="curve" smooth="yes"/>
      <point x="152" y="417"/>
      <point x="187" y="456"/>
      <point x="217" y="476" type="curve"/>
      <point x="206" y="444"/>
      <point x="178" y="400"/>
      <point x="171" y="368" type="curve" smooth="yes"/>
      <point x="166" y="345"/>
      <point x="183" y="325"/>
      <point x="209" y="325" type="curve" smooth="yes"/>
    </contour>
  </outline>
</glyph>
<glyph name="period" format="1">
  <advance width="313"/>
  <unicode hex="002E"/>
  <outline>
    <contour>
      <point x="179" y="-12"/>
      <point x="240" y="46"/>
      <point x="240" y="116" type="curve" smooth="yes"/>
      <point x="240" y="172"/>
      <point x="198" y="219"/>
      <point x="139" y="219" type="curve" smooth="yes"/>
      <point x="72" y="219"/>
      <point x="10" y="165"/>
      <point x="10" y="93" type="curve" smooth="yes"/>
      <point x="10" y="34"/>
      <point x="52" y="-12"/>
      <point x="115" y="-12" type="curve" smooth="yes"/>
    </contour>
  </outline>
</glyph>
<glyph name="two" format="1">
  <advance width="629"/>
  <unicode hex="0032"/>
  <outline>
    <contour>
      <point x="540" y="0" type="line"/>
      <point x="576" y="173" type="line"/>
      <point x="325" y="173" type="line"/>
      <point x="430" y="226" type="line" smooth="yes"/>
      <point x="552" y="296"/>
      <point x="634" y="374"/>
      <point x="634" y="502" type="curve" smooth="yes"/>
      <point x="634" y="617"/>
      <point x="543" y="699"/>
      <point x="394" y="699" type="curve" smooth="yes"/>
      <point x="287" y="699"/>
      <point x="187" y="659"/>
      <point x="93" y="569" type="curve"/>
      <point x="196" y="437" type="line"/>
      <point x="258" y="490"/>
      <point x="312" y="523"/>
      <point x="378" y="523" type="curve" smooth="yes"/>
      <point x="412" y="523"/>
      <point x="434" y="510"/>
      <point x="434" y="485" type="curve" smooth="yes"/>
      <point x="434" y="432"/>
      <point x="375" y="385"/>
      <point x="312" y="345" type="curve" smooth="yes"/>
      <point x="21" y="157" type="line"/>
      <point x="-9" y="0" type="line"/>
    </contour>
  </outline>
</glyph>
<glyph name="four" format="1">
  <advance width="666"/>
  <unicode hex="0034"/>
  <outline>
    <contour>
      <point x="503" y="0" type="line"/>
      <point x="529" y="122" type="line"/>
      <point x="612" y="122" type="line"/>
      <point x="645" y="282" type="line"/>
      <point x="562" y="282" type="line"/>
      <point x="646" y="686" type="line"/>
      <point x="406" y="686" type="line"/>
      <point x="17" y="268" type="line"/>
      <point x="5" y="122" type="line"/>
      <point x="335" y="122" type="line"/>
      <point x="309" y="0" type="line"/>
    </contour>
    <contour>
      <point x="413" y="488" type="line"/>
      <point x="368" y="282" type="line"/>
      <point x="223" y="282" type="line"/>
    </contour>
  </outline>
</glyph>
<glyph name="seven" format="1">
  <advance width="608"/>
  <unicode hex="0037"/>
  <outline>
    <contour>
      <point x="265" y="0" type="line"/>
      <point x="642" y="541" type="line"/>
      <point x="670" y="687" type="line"/>
      <point x="128" y="687" type="line"/>
      <point x="92" y="514" type="line"/>
      <point x="409" y="514" type="line"/>
      <point x="42" y="0" type="line"/>
    </contour>
  </outline>
</glyph>
<glyph name="less" format="1">
  <advance width="599"/>
  <unicode hex="003C"/>
  <outline>
    <contour>
      <point x="524" y="229" type="line"/>
      <point x="218" y="343" type="line"/>
      <point x="574" y="459" type="line"/>
      <point x="603" y="609" type="line"/>
      <point x="89" y="420" type="line"/>
      <point x="59" y="267" type="line"/>
      <point x="494" y="78" type="line"/>
    </contour>
  </outline>
</glyph>
<glyph name="at" format="1">
  <advance width="880"/>
  <unicode hex="0040"/>
  <outline>
    <contour>
      <point x="435" y="-116"/>
      <point x="519" y="-91"/>
      <point x="598" y="-47" type="curve"/>
      <point x="583" y="-14" type="line"/>
      <point x="509" y="-53"/>
      <point x="439" y="-75"/>
      <point x="358" y="-75" type="curve" smooth="yes"/>
      <point x="185" y="-75"/>
      <point x="79" y="35"/>
      <point x="79" y="186" type="curve" smooth="yes"/>
      <point x="79" y="416"/>
      <point x="300" y="634"/>
      <point x="539" y="634" type="curve" smooth="yes"/>
      <point x="711" y="634"/>
      <point x="813" y="534"/>
      <point x="813" y="397" type="curve" smooth="yes"/>
      <point x="813" y="300"/>
      <point x="756" y="163"/>
      <point x="671" y="163" type="curve" smooth="yes"/>
      <point x="646" y="163"/>
      <point x="633" y="176"/>
      <point x="633" y="198" type="curve" smooth="yes"/>
      <point x="633" y="233"/>
      <point x="672" y="312"/>
      <point x="741" y="484" type="curve"/>
      <point x="588" y="496" type="line"/>
      <point x="566" y="444" type="line"/>
      <point x="549" y="481"/>
      <point x="512" y="509"/>
      <point x="451" y="509" type="curve" smooth="yes"/>
      <point x="315" y="509"/>
      <point x="176" y="356"/>
      <point x="176" y="210" type="curve" smooth="yes"/>
      <point x="176" y="127"/>
      <point x="225" y="73"/>
      <point x="312" y="73" type="curve" smooth="yes"/>
      <point x="365" y="73"/>
      <point x="419" y="99"/>
      <point x="465" y="146" type="curve"/>
      <point x="475" y="102"/>
      <point x="507" y="71"/>
      <point x="579" y="71" type="curve" smooth="yes"/>
      <point x="732" y="71"/>
      <point x="859" y="236"/>
      <point x="859" y="400" type="curve" smooth="yes"/>
      <point x="859" y="553"/>
      <point x="743" y="676"/>
      <point x="550" y="676" type="curve" smooth="yes"/>
      <point x="289" y="676"/>
      <point x="35" y="434"/>
      <point x="35" y="179" type="curve" smooth="yes"/>
      <point x="35" y="9"/>
      <point x="155" y="-116"/>
      <point x="346" y="-116" type="curve" smooth="yes"/>
    </contour>
    <contour>
      <point x="363" y="202"/>
      <point x="342" y="221"/>
      <point x="342" y="254" type="curve" smooth="yes"/>
      <point x="342" y="313"/>
      <point x="399" y="380"/>
      <point x="464" y="380" type="curve" smooth="yes"/>
      <point x="495" y="380"/>
      <point x="513" y="361"/>
      <point x="513" y="331" type="curve" smooth="yes"/>
      <point x="513" y="275"/>
      <point x="458" y="202"/>
      <point x="397" y="202" type="curve" smooth="yes"/>
    </contour>
  </outline>
</glyph>
<glyph name="A" format="1">
  <advance width="775"/>
  <unicode hex="0041"/>
  <outline>
    <contour>
      <point x="576" y="92" type="line"/>
      <point x="605" y="235" type="line"/>
      <point x="186" y="235" type="line"/>
      <point x="157" y="92" type="line"/>
    </contour>
    <component base="V" xOffset="810" yOffset="687" xScale="-1" yScale="-1"/>
    <contour>
      <point x="497" y="687" type="move" name="top"/>
    </contour>
    <contour>
      <point x="720" y="0" type="move" name="bottom"/>
    </contour>
  </outline>
</glyph>
<glyph name="C" format="1">
  <advance width="711"/>
  <unicode hex="0043"/>
  <outline>
    <contour>
      <point x="463" y="-12"/>
      <point x="584" y="36"/>
      <point x="660" y="104" type="curve"/>
      <point x="537" y="240" type="line"/>
      <point x="495" y="195"/>
      <point x="428" y="164"/>
      <point x="377" y="164" type="curve" smooth="yes"/>
      <point x="311" y="164"/>
      <point x="246" y="215"/>
      <point x="246" y="302" type="curve" smooth="yes"/>
      <point x="246" y="414"/>
      <point x="355" y="523"/>
      <point x="470" y="523" type="curve" smooth="yes"/>
      <point x="527" y="523"/>
      <point x="569" y="496"/>
      <point x="591" y="459" type="curve"/>
      <point x="751" y="573" type="line"/>
      <point x="696" y="645"/>
      <point x="597" y="699"/>
      <point x="479" y="699" type="curve" smooth="yes"/>
      <point x="256" y="699"/>
      <point x="49" y="508"/>
      <point x="49" y="298" type="curve" smooth="yes"/>
      <point x="49" y="123"/>
      <point x="192" y="-12"/>
      <point x="362" y="-12" type="curve" smooth="yes"/>
    </contour>
    <contour>
      <point x="453" y="687" type="move" name="top"/>
    </contour>
    <contour>
      <point x="353" y="0" type="move" name="bottom"/>
    </contour>
  </outline>
</glyph>
<glyph name="F" format="1">
  <advance width="651"/>
  <unicode hex="0046"/>
  <outline>
    <contour>
      <point x="200" y="0" type="line"/>
      <point x="264" y="313" type="line"/>
      <point x="154" y="244" type="line"/>
      <point x="578" y="244" type="line"/>
      <point x="614" y="417" type="line"/>
      <point x="194" y="417" type="line"/>
      <point x="274" y="347" type="line"/>
      <point x="330" y="633" type="line"/>
      <point x="210" y="514" type="line"/>
      <point x="666" y="514" type="line"/>
      <point x="702" y="687" type="line"/>
      <point x="149" y="687" type="line"/>
      <point x="6" y="0" type="line"/>
    </contour>
  </outline>
</glyph>
<glyph name="G" format="1">
  <advance width="745"/>
  <unicode hex="0047"/>
  <outline>
    <contour>
      <point x="471" y="-12"/>
      <point x="582" y="27"/>
      <point x="669" y="104" type="curve"/>
      <point x="546" y="240" type="line"/>
      <point x="503" y="196"/>
      <point x="442" y="164"/>
      <point x="381" y="164" type="curve" smooth="yes"/>
      <point x="301" y="164"/>
      <point x="245" y="221"/>
      <point x="245" y="296" type="curve" smooth="yes"/>
      <point x="245" y="405"/>
      <point x="362" y="523"/>
      <point x="481" y="523" type="curve" smooth="yes"/>
      <point x="529" y="523"/>
      <point x="575" y="503"/>
      <point x="600" y="459" type="curve"/>
      <point x="760" y="573" type="line"/>
      <point x="703" y="649"/>
      <point x="607" y="699"/>
      <point x="492" y="699" type="curve" smooth="yes"/>
      <point x="273" y="699"/>
      <point x="48" y="511"/>
      <point x="48" y="290" type="curve" smooth="yes"/>
      <point x="48" y="121"/>
      <point x="182" y="-12"/>
      <point x="369" y="-12" type="curve" smooth="yes"/>
    </contour>
    <contour>
      <point x="669" y="104" type="line"/>
      <point x="730" y="396" type="line"/>
      <point x="408" y="396" type="line"/>
      <point x="378" y="253" type="line"/>
      <point x="539" y="253" type="line"/>
      <point x="516" y="282" type="line"/>
      <point x="481" y="104" type="line"/>
    </contour>
    <contour>
      <point x="494" y="687" type="move" name="top"/>
    </contour>
    <contour>
      <point x="364" y="0" type="move" name="bottom"/>
    </contour>
  </outline>
</glyph>
<glyph name="I" format="1">
  <advance width="321"/>
  <unicode hex="0049"/>
  <outline>
    <contour>
      <point x="204" y="0" type="line"/>
      <point x="347" y="687" type="line"/>
      <point x="153" y="687" type="line"/>
      <point x="10" y="0" type="line"/>
    </contour>
    <contour>
      <point x="250" y="687" type="move" name="top"/>
    </contour>
    <contour>
      <point x="204" y="0" type="move" name="bottom"/>
    </contour>
  </outline>
</glyph>
<glyph name="K" format="1">
  <advance width="717"/>
  <unicode hex="004B"/>
  <outline>
    <contour>
      <point x="200" y="0" type="line"/>
      <point x="241" y="182" type="line"/>
      <point x="330" y="260" type="line"/>
      <point x="451" y="0" type="line"/>
      <point x="672" y="0" type="line"/>
      <point x="485" y="395" type="line"/>
      <point x="806" y="687" type="line"/>
      <point x="559" y="687" type="line"/>
      <point x="291" y="444" type="line"/>
      <point x="343" y="687" type="line"/>
      <point x="149" y="687" type="line"/>
      <point x="6" y="0" type="line"/>
    </contour>
    <contour>
      <point x="324" y="0" type="move" name="bottom"/>
    </contour>
  </outline>
</glyph>
<glyph name="T" format="1">
  <advance width="645"/>
  <unicode hex="0054"/>
  <outline>
    <contour>
      <point x="366" y="0" type="line"/>
      <point x="473" y="514" type="line"/>
      <point x="676" y="514" type="line"/>
      <point x="712" y="687" type="line"/>
      <point x="112" y="687" type="line"/>
      <point x="76" y="514" type="line"/>
      <point x="279" y="514" type="line"/>
      <point x="172" y="0" type="line"/>
    </contour>
    <contour>
      <point x="412" y="687" type="move" name="top"/>
    </contour>
    <contour>
      <point x="263" y="0" type="move" name="bottom"/>
    </contour>
  </outline>
</glyph>
<glyph name="U" format="1">
  <advance width="761"/>
  <unicode hex="0055"/>
  <outline>
    <contour>
      <point x="522" y="-12"/>
      <point x="677" y="111"/>
      <point x="715" y="297" type="curve" smooth="yes"/>
      <point x="796" y="687" type="line"/>
      <point x="602" y="687" type="line"/>
      <point x="527" y="323" type="line" smooth="yes"/>
      <point x="508" y="235"/>
      <point x="432" y="164"/>
      <point x="348" y="164" type="curve" smooth="yes"/>
      <point x="276" y="164"/>
      <point x="239" y="219"/>
      <point x="257" y="307" type="curve" smooth="yes"/>
      <point x="336" y="687" type="line"/>
      <point x="142" y="687" type="line"/>
      <point x="64" y="313" type="line" smooth="yes"/>
      <point x="26" y="127"/>
      <point x="138" y="-12"/>
      <point x="336" y="-12" type="curve" smooth="yes"/>
    </contour>
    <contour>
      <point x="469" y="687" type="move" name="top"/>
    </contour>
    <contour>
      <point x="345" y="0" type="move" name="bottom"/>
    </contour>
  </outline>
</glyph>
<glyph name="V" format="1">
  <advance width="749"/>
  <unicode hex="0056"/>
  <outline>
    <contour>
      <point x="430" y="0" type="line"/>
      <point x="837" y="687" type="line"/>
      <point x="614" y="687" type="line"/>
      <point x="208" y="0" type="line"/>
    </contour>
    <contour>
      <point x="427" y="0" type="line"/>
      <point x="305" y="687" type="line"/>
      <point x="90" y="687" type="line"/>
      <point x="211" y="0" type="line"/>
    </contour>
  </outline>
</glyph>
<glyph name="Y" format="1">
  <advance width="709"/>
  <unicode hex="0059"/>
  <outline>
    <contour>
      <point x="395" y="0" type="line"/>
      <point x="445" y="226" type="line"/>
      <point x="804" y="687" type="line"/>
      <point x="586" y="687" type="line"/>
      <point x="369" y="394" type="line"/>
      <point x="263" y="687" type="line"/>
      <point x="83" y="687" type="line"/>
      <point x="251" y="226" type="line"/>
      <point x="201" y="0" type="line"/>
    </contour>
    <contour>
      <point x="425" y="687" type="move" name="top"/>
    </contour>
  </outline>
</glyph>
<glyph name="Z" format="1">
  <advance width="667"/>
  <unicode hex="005A"/>
  <outline>
    <contour>
      <point x="585" y="0" type="line"/>
      <point x="621" y="173" type="line"/>
      <point x="295" y="173" type="line"/>
      <point x="695" y="542" type="line"/>
      <point x="723" y="687" type="line"/>
      <point x="139" y="687" type="line"/>
      <point x="103" y="514" type="line"/>
      <point x="419" y="514" type="line"/>
      <point x="16" y="145" type="line"/>
      <point x="-10" y="0" type="line"/>
    </contour>
    <contour>
      <point x="431" y="687" type="move" name="top"/>
    </contour>
  </outline>
</glyph>
<glyph name="bracketright" format="1">
  <advance width="398"/>
  <unicode hex="005D"/>
  <outline>
    <contour>
      <point x="247" y="-160" type="line"/>
      <point x="424" y="689" type="line"/>
      <point x="129" y="689" type="line"/>
      <point x="104" y="568" type="line"/>
      <point x="252" y="568" type="line"/>
      <point x="125" y="-39" type="line"/>
      <point x="-23" y="-39" type="line"/>
      <point x="-48" y="-160" type="line"/>
    </contour>
  </outline>
</glyph>
<glyph name="grave" format="1">
  <advance width="399"/>
  <unicode hex="0060"/>
  <outline>
    <contour>
      <point x="402" y="574" type="line"/>
      <point x="324" y="738" type="line"/>
      <point x="157" y="710" type="line"/>
      <point x="281" y="574" type="line"/>
    </contour>
    <contour>
      <point x="323" y="704" type="move" name="top"/>
    </contour>
    <contour>
      <point x="284" y="517" type="move" name="_top"/>
    </contour>
  </outline>
</glyph>
<glyph name="c" format="1">
  <advance width="556"/>
  <unicode hex="0063"/>
  <outline>
    <contour>
      <point x="363" y="-12"/>
      <point x="441" y="21"/>
      <point x="505" y="81" type="curve"/>
      <point x="392" y="195" type="line"/>
      <point x="368" y="171"/>
      <point x="323" y="148"/>
      <point x="284" y="148" type="curve" smooth="yes"/>
      <point x="238" y="148"/>
      <point x="206" y="181"/>
      <point x="206" y="225" type="curve" smooth="yes"/>
      <point x="206" y="293"/>
      <point x="279" y="369"/>
      <point x="354" y="369" type="curve" smooth="yes"/>
      <point x="380" y="369"/>
      <point x="413" y="358"/>
      <point x="428" y="335" type="curve"/>
      <point x="568" y="427" type="line"/>
      <point x="528" y="485"/>
      <point x="462" y="529"/>
      <point x="364" y="529" type="curve" smooth="yes"/>
      <point x="197" y="529"/>
      <point x="25" y="391"/>
      <point x="25" y="222" type="curve" smooth="yes"/>
      <point x="25" y="91"/>
      <point x="129" y="-12"/>
      <point x="273" y="-12" type="curve" smooth="yes"/>
    </contour>
    <contour>
      <point x="349" y="517" type="move" name="top"/>
    </contour>
    <contour>
      <point x="256" y="0" type="move" name="bottom"/>
    </contour>
  </outline>
</glyph>
<glyph name="f" format="1">
  <advance width="395"/>
  <unicode hex="0066"/>
  <outline>
    <contour>
      <point x="213" y="0" type="line"/>
      <point x="319" y="509" type="line" smooth="yes"/>
      <point x="325" y="535"/>
      <point x="349" y="570"/>
      <point x="394" y="570" type="curve" smooth="yes"/>
      <point x="402" y="570"/>
      <point x="415" y="569"/>
      <point x="426" y="560" type="curve"/>
      <point x="472" y="662" type="line"/>
      <point x="445" y="693"/>
      <point x="396" y="720"/>
      <point x="337" y="720" type="curve" smooth="yes"/>
      <point x="247" y="720"/>
      <point x="166" y="656"/>
      <point x="144" y="553" type="curve" smooth="yes"/>
      <point x="29" y="0" type="line"/>
    </contour>
    <contour>
      <point x="391" y="365" type="line"/>
      <point x="423" y="517" type="line"/>
      <point x="72" y="517" type="line"/>
      <point x="40" y="365" type="line"/>
    </contour>
  </outline>
</glyph>
<glyph name="t" format="1">
  <advance width="420"/>
  <unicode hex="0074"/>
  <outline>
    <contour>
      <point x="260" y="-12"/>
      <point x="313" y="7"/>
      <point x="349" y="36" type="curve"/>
      <point x="334" y="169" type="line"/>
      <point x="324" y="160"/>
      <point x="299" y="148"/>
      <point x="277" y="148" type="curve" smooth="yes"/>
      <point x="261" y="148"/>
      <point x="252" y="155"/>
      <point x="252" y="175" type="curve" smooth="yes"/>
      <point x="252" y="193"/>
      <point x="259" y="219"/>
      <point x="351" y="659" type="curve"/>
      <point x="167" y="659" type="line"/>
      <point x="71" y="198"/>
      <point x="61" y="167"/>
      <point x="61" y="132" type="curve" smooth="yes"/>
      <point x="61" y="48"/>
      <point x="121" y="-12"/>
      <point x="210" y="-12" type="curve" smooth="yes"/>
    </contour>
    <contour>
      <point x="391" y="365" type="line"/>
      <point x="423" y="517" type="line"/>
      <point x="72" y="517" type="line"/>
      <point x="40" y="365" type="line"/>
    </contour>
    <contour>
      <point x="233" y="0" type="move" name="bottom"/>
    </contour>
  </outline>
</glyph>
<glyph name="y" format="1">
  <advance width="607"/>
  <unicode hex="0079"/>
  <outline>
    <contour>
      <point x="202" y="-180"/>
      <point x="286" y="-123"/>
      <point x="351" y="-11" type="curve" smooth="yes"/>
      <point x="656" y="517" type="line"/>
      <point x="458" y="517" type="line"/>
      <point x="290" y="198" type="line"/>
      <point x="252" y="517" type="line"/>
      <point x="59" y="517" type="line"/>
      <point x="157" y="-7" type="line"/>
      <point x="140" y="-20" type="line"/>
      <point x="135" y="-29"/>
      <point x="101" y="-43"/>
      <point x="80" y="-43" type="curve" smooth="yes"/>
      <point x="63" y="-43"/>
      <point x="39" y="-34"/>
      <point x="14" y="-18" type="curve"/>
      <point x="-40" y="-134" type="line"/>
      <point x="-1" y="-159"/>
      <point x="64" y="-180"/>
      <point x="116" y="-180" type="curve" smooth="yes"/>
    </contour>
    <contour>
      <point x="358" y="517" type="move" name="top"/>
    </contour>
  </outline>
</glyph>
<glyph name="z" format="1">
  <advance width="546"/>
  <unicode hex="007A"/>
  <outline>
    <contour>
      <point x="462" y="0" type="line"/>
      <point x="496" y="160" type="line"/>
      <point x="266" y="160" type="line"/>
      <point x="541" y="384" type="line"/>
      <point x="568" y="517" type="line"/>
      <point x="96" y="517" type="line"/>
      <point x="63" y="357" type="line"/>
      <point x="283" y="357" type="line"/>
      <point x="7" y="133" type="line"/>
      <point x="-18" y="0" type="line"/>
    </contour>
    <contour>
      <point x="335" y="517" type="move" name="top"/>
    </contour>
  </outline>
</glyph>
<glyph name="braceright" format="1">
  <advance width="428"/>
  <unicode hex="007D"/>
  <outline>
    <contour>
      <point x="152" y="-154"/>
      <point x="228" y="-105"/>
      <point x="253" y="15" type="curve" smooth="yes"/>
      <point x="273" y="122" type="line" smooth="yes"/>
      <point x="285" y="179"/>
      <point x="326" y="211"/>
      <point x="392" y="211" type="curve"/>
      <point x="402" y="321" type="line"/>
      <point x="347" y="321"/>
      <point x="326" y="331"/>
      <point x="326" y="365" type="curve" smooth="yes"/>
      <point x="326" y="395"/>
      <point x="359" y="502"/>
      <point x="359" y="546" type="curve" smooth="yes"/>
      <point x="359" y="637"/>
      <point x="289" y="687"/>
      <point x="134" y="697" type="curve"/>
      <point x="108" y="585" type="line"/>
      <point x="187" y="575"/>
      <point x="211" y="568"/>
      <point x="211" y="533" type="curve" smooth="yes"/>
      <point x="211" y="501"/>
      <point x="179" y="395"/>
      <point x="179" y="357" type="curve" smooth="yes"/>
      <point x="179" y="314"/>
      <point x="201" y="283"/>
      <point x="237" y="271" type="curve"/>
      <point x="174" y="251"/>
      <point x="147" y="219"/>
      <point x="135" y="161" type="curve" smooth="yes"/>
      <point x="112" y="47" type="line" smooth="yes"/>
      <point x="99" y="-17"/>
      <point x="65" y="-40"/>
      <point x="-37" y="-52" type="curve"/>
      <point x="-32" y="-166" type="line"/>
    </contour>
  </outline>
</glyph>
<glyph name="periodcentered" format="1">
  <advance width="284"/>
  <unicode hex="00B7"/>
  <outline>
    <contour>
      <point x="198" y="177"/>
      <point x="248" y="229"/>
      <point x="248" y="288" type="curve" smooth="yes"/>
      <point x="248" y="340"/>
      <point x="209" y="381"/>
      <point x="155" y="381" type="curve" smooth="yes"/>
      <point x="95" y="381"/>
      <point x="45" y="330"/>
      <point x="45" y="269" type="curve" smooth="yes"/>
      <point x="45" y="217"/>
      <point x="83" y="177"/>
      <point x="138" y="177" type="curve" smooth="yes"/>
    </contour>
  </outline>
</glyph>
<glyph name="AE" format="1">
  <advance width="1113"/>
  <unicode hex="00C6"/>
  <outline>
    <contour>
      <point x="175" y="0" type="line"/>
      <point x="715" y="687" type="line"/>
      <point x="487" y="687" type="line"/>
      <point x="-53" y="0" type="line"/>
    </contour>
    <contour>
      <point x="621" y="92" type="line"/>
      <point x="650" y="235" type="line"/>
      <point x="231" y="235" type="line"/>
      <point x="202" y="92" type="line"/>
    </contour>
    <component base="E" xOffset="462"/>
  </outline>
</glyph>
<glyph name="germandbls" format="1">
  <advance width="638"/>
  <unicode hex="00DF"/>
  <outline>
    <contour>
      <point x="190" y="0" type="line"/>
      <point x="285" y="455" type="line" smooth="yes"/>
      <point x="293" y="494"/>
      <point x="336" y="524"/>
      <point x="382" y="524" type="curve" smooth="yes"/>
      <point x="416" y="524"/>
      <point x="432" y="512"/>
      <point x="432" y="493" type="curve" smooth="yes"/>
      <point x="432" y="460"/>
      <point x="387" y="420"/>
      <point x="342" y="420" type="curve" smooth="yes"/>
      <point x="347" y="420" type="line"/>
      <point x="316" y="273" type="line"/>
      <point x="352" y="273" type="line" smooth="yes"/>
      <point x="394" y="273"/>
      <point x="415" y="258"/>
      <point x="410" y="233" type="curve" smooth="yes"/>
      <point x="402" y="194"/>
      <point x="359" y="163"/>
      <point x="317" y="163" type="curve" smooth="yes"/>
      <point x="293" y="163" type="line"/>
      <point x="259" y="0" type="line"/>
      <point x="328" y="0" type="line" smooth="yes"/>
      <point x="472" y="0"/>
      <point x="601" y="76"/>
      <point x="601" y="209" type="curve" smooth="yes"/>
      <point x="601" y="274"/>
      <point x="565" y="328"/>
      <point x="508" y="354" type="curve"/>
      <point x="590" y="390"/>
      <point x="638" y="459"/>
      <point x="638" y="542" type="curve" smooth="yes"/>
      <point x="638" y="649"/>
      <point x="546" y="724"/>
      <point x="402" y="724" type="curve" smooth="yes"/>
      <point x="252" y="724"/>
      <point x="132" y="645"/>
      <point x="106" y="522" type="curve" smooth="yes"/>
      <point x="-3" y="0" type="line"/>
    </contour>
  </outline>
</glyph>
<glyph name="ae" format="1">
  <advance width="880"/>
  <unicode hex="00E6"/>
  <outline>
    <contour>
      <point x="352" y="-12"/>
      <point x="448" y="55"/>
      <point x="474" y="180" type="curve"/>
      <point x="507" y="337" type="line" smooth="yes"/>
      <point x="529" y="445"/>
      <point x="454" y="529"/>
      <point x="325" y="529" type="curve" smooth="yes"/>
      <point x="244" y="529"/>
      <point x="183" y="507"/>
      <point x="104" y="471" type="curve"/>
      <point x="152" y="343" type="line"/>
      <point x="191" y="362"/>
      <point x="235" y="376"/>
      <point x="286" y="376" type="curve" smooth="yes"/>
      <point x="347" y="376"/>
      <point x="376" y="358"/>
      <point x="366" y="313" type="curve" smooth="yes"/>
      <point x="337" y="171" type="line"/>
      <point x="330" y="138"/>
      <point x="287" y="112"/>
      <point x="226" y="112" type="curve" smooth="yes"/>
      <point x="198" y="112"/>
      <point x="182" y="124"/>
      <point x="186" y="143" type="curve" smooth="yes"/>
      <point x="194" y="179"/>
      <point x="232" y="208"/>
      <point x="275" y="208" type="curve" smooth="yes"/>
      <point x="299" y="208"/>
      <point x="327" y="205"/>
      <point x="348" y="192" type="curve"/>
      <point x="407" y="270" type="line"/>
      <point x="360" y="304"/>
      <point x="304" y="325"/>
      <point x="248" y="325" type="curve" smooth="yes"/>
      <point x="129" y="325"/>
      <point x="24" y="262"/>
      <point x="4" y="168" type="curve" smooth="yes"/>
      <point x="-17" y="64"/>
      <point x="68" y="-12"/>
      <point x="208" y="-12" type="curve" smooth="yes"/>
    </contour>
    <component base="e" xOffset="329"/>
  </outline>
</glyph>
<glyph name="divide" format="1">
  <advance width="609"/>
  <unicode hex="00F7"/>
  <outline>
    <contour>
      <point x="554" y="260" type="line"/>
      <point x="585" y="409" type="line"/>
      <point x="86" y="409" type="line"/>
      <point x="55" y="260" type="line"/>
    </contour>
    <contour>
      <point x="325" y="30"/>
      <point x="375" y="79"/>
      <point x="375" y="137" type="curve" smooth="yes"/>
      <point x="375" y="186"/>
      <point x="338" y="226"/>
      <point x="287" y="226" type="curve" smooth="yes"/>
      <point x="232" y="226"/>
      <point x="181" y="184"/>
      <point x="181" y="121" type="curve" smooth="yes"/>
      <point x="181" y="70"/>
      <point x="217" y="30"/>
      <point x="271" y="30" type="curve" smooth="yes"/>
    </contour>
    <contour>
      <point x="411" y="442"/>
      <point x="460" y="490"/>
      <point x="460" y="548" type="curve" smooth="yes"/>
      <point x="460" y="597"/>
      <point x="425" y="638"/>
      <point x="373" y="638" type="curve" smooth="yes"/>
      <point x="319" y="638"/>
      <point x="266" y="596"/>
      <point x="266" y="534" type="curve" smooth="yes"/>
      <point x="266" y="482"/>
      <point x="303" y="442"/>
      <point x="357" y="442" type="curve" smooth="yes"/>
    </contour>
  </outline>
</glyph>
<glyph name="Lslash" format="1">
  <advance width="623"/>
  <unicode hex="0141"/>
  <outline>
    <contour>
      <point x="407" y="358" type="line"/>
      <point x="440" y="525" type="line"/>
      <point x="36" y="345" type="line"/>
      <point x="4" y="178" type="line"/>
    </contour>
    <component base="L" xOffset="26"/>
  </outline>
</glyph>
<glyph name="dotaccent" format="1">
  <advance width="299"/>
  <unicode hex="02D9"/>
  <outline>
    <contour>
      <point x="275" y="575"/>
      <point x="319" y="614"/>
      <point x="319" y="666" type="curve" smooth="yes"/>
      <point x="319" y="711"/>
      <point x="286" y="748"/>
      <point x="240" y="748" type="curve" smooth="yes"/>
      <point x="192" y="748"/>
      <point x="148" y="710"/>
      <point x="148" y="656" type="curve" smooth="yes"/>
      <point x="148" y="611"/>
      <point x="179" y="575"/>
      <point x="229" y="575" type="curve" smooth="yes"/>
    </contour>
    <contour>
      <point x="243" y="704" type="move" name="top"/>
    </contour>
    <contour>
      <point x="96" y="0" type="move" name="bottom"/>
    </contour>
    <contour>
      <point x="204" y="517" type="move" name="_top"/>
    </contour>
  </outline>
</glyph>
<glyph name="guilsinglright" format="1">
  <advance width="372"/>
  <unicode hex="203A"/>
  <outline>
    <contour>
      <point x="341" y="256" type="line"/>
      <point x="214" y="462" type="line"/>
      <point x="70" y="432" type="line"/>
      <point x="171" y="256" type="line"/>
      <point x="-7" y="79" type="line"/>
      <point x="133" y="48" type="line"/>
    </contour>
  </outline>
</glyph>
<glyph name="a.alt" format="1">
  <advance width="587"/>
  <outline>
    <contour>
      <point x="486" y="0" type="line"/>
      <point x="547" y="292"/>
      <point x="554" y="316"/>
      <point x="554" y="347" type="curve" smooth="yes"/>
      <point x="554" y="459"/>
      <point x="465" y="529"/>
      <point x="345" y="529" type="curve" smooth="yes"/>
      <point x="264" y="529"/>
      <point x="183" y="507"/>
      <point x="104" y="471" type="curve"/>
      <point x="152" y="343" type="line"/>
      <point x="191" y="362"/>
      <point x="235" y="376"/>
      <point x="286" y="376" type="curve" smooth="yes"/>
      <point x="339" y="376"/>
      <point x="368" y="362"/>
      <point x="368" y="329" type="curve" smooth="yes"/>
      <point x="368" y="322"/>
      <point x="376" y="362"/>
      <point x="301" y="0" type="curve"/>
    </contour>
    <contour>
      <point x="252" y="-12"/>
      <point x="335" y="27"/>
      <point x="371" y="106" type="curve"/>
      <point x="334" y="171" type="line"/>
      <point x="326" y="141"/>
      <point x="280" y="112"/>
      <point x="226" y="112" type="curve" smooth="yes"/>
      <point x="201" y="112"/>
      <point x="185" y="121"/>
      <point x="185" y="137" type="curve" smooth="yes"/>
      <point x="185" y="171"/>
      <point x="229" y="208"/>
      <point x="275" y="208" type="curve" smooth="yes"/>
      <point x="299" y="208"/>
      <point x="327" y="205"/>
      <point x="348" y="192" type="curve"/>
      <point x="407" y="270" type="line"/>
      <point x="360" y="304"/>
      <point x="304" y="325"/>
      <point x="248" y="325" type="curve" smooth="yes"/>
      <point x="122" y="325"/>
      <point x="1" y="252"/>
      <point x="1" y="135" type="curve" smooth="yes"/>
      <point x="1" y="48"/>
      <point x="74" y="-12"/>
      <point x="178" y="-12" type="curve" smooth="yes"/>
    </contour>
    <contour>
      <point x="359" y="517" type="move" name="top"/>
    </contour>
    <contour>
      <point x="486" y="0" type="move" name="bottom"/>
    </contour>
  </outline>
</glyph>
<glyph name="lowercase_loop" format="1">
  <advance width="626"/>
  <outline>
    <contour>
      <point x="482" y="-12"/>
      <point x="602" y="147"/>
      <point x="602" y="318" type="curve" smooth="yes"/>
      <point x="602" y="444"/>
      <point x="526" y="529"/>
      <point x="404" y="529" type="curve" smooth="yes"/>
      <point x="241" y="529"/>
      <point x="122" y="368"/>
      <point x="122" y="199" type="curve" smooth="yes"/>
      <point x="122" y="73"/>
      <point x="196" y="-12"/>
      <point x="316" y="-12" type="curve" smooth="yes"/>
    </contour>
    <contour>
      <point x="217" y="148"/>
      <point x="189" y="175"/>
      <point x="189" y="219" type="curve" smooth="yes"/>
      <point x="189" y="292"/>
      <point x="255" y="369"/>
      <point x="335" y="369" type="curve" smooth="yes"/>
      <point x="387" y="369"/>
      <point x="418" y="341"/>
      <point x="418" y="296" type="curve" smooth="yes"/>
      <point x="418" y="221"/>
      <point x="347" y="148"/>
      <point x="264" y="148" type="curve" smooth="yes"/>
    </contour>
  </outline>
</glyph>
<glyph name="lowercase_loop_reverse" format="1">
  <advance width="626"/>
  <outline>
    <contour>
      <point x="485" y="-12"/>
      <point x="603" y="148"/>
      <point x="603" y="319" type="curve" smooth="yes"/>
      <point x="603" y="444"/>
      <point x="528" y="529"/>
      <point x="409" y="529" type="curve" smooth="yes"/>
      <point x="243" y="529"/>
      <point x="123" y="369"/>
      <point x="123" y="200" type="curve" smooth="yes"/>
      <point x="123" y="74"/>
      <point x="199" y="-12"/>
      <point x="321" y="-12" type="curve" smooth="yes"/>
    </contour>
    <contour>
      <point x="338" y="148"/>
      <point x="307" y="176"/>
      <point x="307" y="221" type="curve" smooth="yes"/>
      <point x="307" y="298"/>
      <point x="378" y="369"/>
      <point x="462" y="369" type="curve" smooth="yes"/>
      <point x="508" y="369"/>
      <point x="536" y="342"/>
      <point x="536" y="298" type="curve" smooth="yes"/>
      <point x="536" y="226"/>
      <point x="471" y="148"/>
      <point x="391" y="148" type="curve" smooth="yes"/>
    </contour>
  </outline>
</glyph>
